<?xml version="1.0" encoding="UTF-8"?>
<svg xmlns="http://www.w3.org/2000/svg" viewBox="0 0 287.51 73.47">
  <g id="Layer_1" data-name="Layer 1"/>
  <g id="Layer_2" data-name="Layer 2">
    <g id="Layer_2-2" data-name="Layer 2">
      <path d="M16.08,23.21v-6.9h-7.98V0H0V31.46c0,4.47,1.56,8.26,4.68,11.35,3.12,3.1,6.92,4.64,11.4,4.64v-8.09c-2.2,0-4.08-.78-5.64-2.32-1.56-1.53-2.34-3.4-2.34-5.6v-8.23h7.98Z" fill="#fff"/>
      <path d="M51.36,26.94c-1.16-3.2-3.11-5.77-5.85-7.72-2.74-1.93-5.81-2.91-9.21-2.91-1.8,0-3.64,.35-5.52,1.02-3.2,1.17-5.76,3.12-7.68,5.86-1.92,2.74-2.88,5.81-2.88,9.21,0,4.43,1.55,8.22,4.65,11.34,3.1,3.12,6.89,4.67,11.37,4.67,4.96,0,9.04-1.88,12.25-5.64l1.69,4.68h8.62l-7.44-20.51Zm-9.48,11.06c-1.56,1.54-3.44,2.32-5.64,2.32-1.6,0-3.1-.49-4.5-1.45-2.28-1.57-3.42-3.73-3.42-6.5,0-1.65,.48-3.18,1.44-4.58,1.52-2.25,3.68-3.38,6.48-3.38,1.72,0,3.24,.47,4.56,1.39,2.28,1.57,3.42,3.75,3.42,6.57,0,2.2-.78,4.08-2.34,5.63Z" fill="#fff"/>
      <path d="M81.9,31.32l10.68-15.01h-10.08l-5.4,8.4-5.28-8.4h-10.2l10.32,15.01-11.52,16.13h10.68l5.7-9.24,5.52,9.24h10.56l-10.98-16.13Z" fill="#fff"/>
      <path d="M103.92,9.41c0,1.36-.46,2.51-1.38,3.45s-2.06,1.41-3.42,1.41-2.51-.47-3.45-1.41c-.94-.94-1.41-2.09-1.41-3.45s.47-2.5,1.41-3.42c.94-.92,2.09-1.38,3.45-1.38s2.45,.47,3.39,1.41c.94,.94,1.41,2.07,1.41,3.39Z" fill="#fff"/>
      <rect x="95.1" y="16.31" width="8.1" height="31.14" fill="#fff"/>
      <path d="M135.39,20.96c-3.1-3.1-6.89-4.65-11.37-4.65-2.88,0-5.54,.69-7.98,2.04V0h-8.1V32.29c0,4.52,1.55,8.33,4.65,11.42,3.1,3.1,6.91,4.65,11.43,4.65s8.27-1.56,11.37-4.68c3.1-3.11,4.65-6.9,4.65-11.38s-1.55-8.25-4.65-11.34Zm-5.76,16.96c-1.54,1.56-3.41,2.33-5.61,2.33s-4.08-.77-5.64-2.33c-1.56-1.55-2.34-3.42-2.34-5.62s.78-4.05,2.34-5.58c1.56-1.54,3.44-2.31,5.64-2.31s4.02,.78,5.58,2.34c1.56,1.55,2.34,3.4,2.34,5.55s-.77,4.07-2.31,5.62Z" fill="#fff"/>
      <path d="M242.51,0V18.35c-2.44-1.35-5.08-2.04-7.92-2.04-4.48,0-8.27,1.55-11.39,4.65-3.12,3.09-4.69,6.87-4.69,11.34s1.55,8.32,4.66,11.41c3.09,3.1,6.9,4.65,11.42,4.65s8.27-1.56,11.38-4.68c3.09-3.12,4.65-6.91,4.65-11.39V0h-8.11Zm-2.3,37.92c-1.54,1.56-3.42,2.33-5.62,2.33s-4.08-.77-5.63-2.33c-1.57-1.55-2.34-3.42-2.34-5.62s.77-4.05,2.34-5.58c1.55-1.54,3.43-2.31,5.63-2.31s4.03,.78,5.58,2.34c1.57,1.55,2.34,3.4,2.34,5.55s-.77,4.07-2.3,5.62Z" fill="#fff"/>
      <path d="M279.41,16.31v16.04c0,2.2-.78,4.07-2.35,5.63-1.57,1.56-3.45,2.33-5.66,2.33s-4.09-.78-5.63-2.33c-1.55-1.56-2.32-3.43-2.32-5.63V16.31h-8.1v16.05c0,4.47,1.56,8.26,4.68,11.38s6.92,4.67,11.4,4.67c2.84,0,5.5-.7,7.98-2.1v1.44l8.1-1.45V16.31h-8.1Z" fill="#fff"/>
      <path d="M279.41,47.75c0,12.55-13.12,15.64-24.06,16.03v9.69c1.79-.12,3.67-.33,5.62-.63,7.51-1.19,13.48-2.14,18.59-6.82,7.24-6.64,7.89-16.34,7.95-19.72-2.7,.48-5.4,.97-8.1,1.45Z" fill="#fff"/>
      <path d="M168.84,32.33c0,2.2-.78,4.08-2.35,5.64-1.57,1.56-3.45,2.34-5.66,2.34s-4.08-.78-5.63-2.34c-1.55-1.56-2.32-3.44-2.32-5.64v-4.71h-8.1v4.71c0,4.48,1.56,8.28,4.68,11.4,3.12,3.12,6.92,4.68,11.4,4.68s8.33-1.55,11.43-4.65,4.65-6.91,4.65-11.43v-4.71h-8.1v4.71Z" fill="#fff"/>
      <path d="M205.67,0V18.35c-2.44-1.35-5.08-2.04-7.92-2.04-4.48,0-8.27,1.55-11.39,4.65-3.12,3.09-4.69,6.87-4.69,11.34s1.55,8.32,4.66,11.41c3.09,3.1,6.9,4.65,11.42,4.65s8.27-1.56,11.38-4.68c3.09-3.12,4.65-6.91,4.65-11.39V0h-8.11Zm.33,37.41c1.52,.65,1.7,1.44,1.7,2.27,0,1.15-.83,1.94-1.98,1.94-.51,0-1.08-.07-1.98-.5l-14.65-6.73c-.76-.36-1.34-1.16-1.34-2.06s.58-1.69,1.34-2.05l14.65-6.73c.9-.43,1.47-.5,1.98-.5,1.15,0,1.98,.79,1.98,1.94,0,.83-.18,1.62-1.7,2.27l-11.59,5.07,11.59,5.08Z" fill="#fff"/>
    </g>
  </g>
</svg>