<?xml version="1.0" encoding="UTF-8"?>
<svg xmlns="http://www.w3.org/2000/svg" viewBox="0 0 403.26 105.25">
  <g id="Layer_1" data-name="Layer 1"/>
  <g id="Layer_2" data-name="Layer 2">
    <g id="Layer_2-2" data-name="Layer 2">
      <path d="M103.22,62.3c.12-14.86-5.84-19.71-7.6-20.82-.31-.19-.49-.27-.49-.27-4.08-3.99-6.26-23.49-10.9-28.83-2.3-2.65-6.32-3.57-9.8-3.83-1.57-.11-3.02-.09-4.16-.03-1.33,.07-2.22,.18-2.34,.2,0,0-.14-3.51-.53-5.48-.01-.06-.03-.12-.05-.17,0-.04-.01-.07-.03-.11-.02-.05-.04-.11-.06-.17-.02-.07-.05-.14-.09-.21-.03-.07-.07-.14-.11-.21-.03-.07-.07-.13-.11-.2-.12-.2-.26-.38-.42-.56-.09-.09-.17-.18-.26-.26-.11-.11-.22-.21-.33-.31-.11-.09-.21-.18-.32-.26-.07-.06-.14-.11-.2-.15-.31-.23-.58-.39-.77-.5-.05-.03-.09-.05-.13-.07-.03-.02-.05-.03-.07-.04-.01,0-.02,0-.03,0h-25.6s-.04,0-.11,.05c-.04,.02-.08,.04-.13,.07-.23,.13-.59,.35-.98,.65-.11,.08-.21,.17-.32,.27-.11,.09-.22,.19-.33,.3-.13,.13-.25,.27-.37,.41-.12,.14-.23,.29-.33,.45-.21,.32-.36,.66-.43,1.03-.39,1.97-.53,5.48-.53,5.48,0,0-11.67-1.69-16.31,3.66-4.64,5.34-6.82,24.84-10.9,28.83,0,0-7.32,3.25-8.02,18.29-.05,.89-.07,1.82-.06,2.8,.01,1.56,.03,2.96,.07,4.23,.19,7.13,.77,10.02,2.14,11.83,.2,.25,.4,.48,.61,.71,.02,.02,.04,.05,.07,.07,1.58,1.7,3.29,2.71,4.42,3.27,0,0-.35,9.7,1.83,11.04,.4,.24,.75,.47,1.07,.66,1.44,.88,2.49,1.3,6.45,1.24,4.85-.07,6.96,.14,8.65-2.46,.13-.2,.24-.39,.35-.58,.2-.38,.37-.74,.49-1.11,.2-.59,.31-1.19,.36-1.87,.05-.66,.05-1.39,.03-2.25,0-.16-.01-.33-.01-.5-.01-.47-.03-.97-.04-1.52-.01-.15-.01-.3-.01-.46-.02-.31-.02-.64-.03-.98-.01-.27-.01-.55-.02-.84v-.23h50.35c-.07,6.05-.56,7.73,1.12,10.34,1.69,2.6,3.8,2.39,8.65,2.46s5.34-.57,7.52-1.9c2.18-1.34,1.83-11.04,1.83-11.04,5.77-4.36,7.17-2.67,7.32-20.11ZM23.9,19.62c2.64-1.33,14.15-6.55,16.97-7.69,4.76,.96,17.64,5.15,18.85,5.63,2.67-.24,13.95-2.58,16.12-3.28,.71,1.4,2.38,6.18,3.94,11.08,1.57,4.9,3.01,9.92,3.28,11.79-3,1.3-20.52,5.85-24.56,6.19-2.93-.89-18.43-4.34-22.5-4.88-3.29,1.34-16.44,3.11-17.98,3.01,.12-2.06,3.93-17.97,5.88-21.85Zm28.41,54.27c-5.8,0-10.5-5.01-10.5-11.19,0-.26,.02-.5,.03-.75h20.93c.02,.25,.04,.49,.04,.75,0,6.18-4.7,11.19-10.5,11.19Zm-29.74-21.7c5.8,0,10.5,4.7,10.5,10.5s-4.7,10.5-10.5,10.5-10.5-4.7-10.5-10.5,4.7-10.5,10.5-10.5Zm69.42,12.91s-.01,.01-.01,.02c-1.09,4.63-5.25,8.07-10.21,8.07-1.67,0-3.26-.4-4.66-1.1-.45-.22-.88-.48-1.29-.76-2.75-1.88-4.55-5.05-4.55-8.64,0-5.8,4.7-10.5,10.5-10.5,1.91,0,3.69,.51,5.23,1.4,.82,.47,1.56,1.04,2.22,1.71,1.23,1.24,2.15,2.78,2.64,4.51,.04,.12,.07,.24,.1,.36,.04,.14,.07,.28,.09,.42,.02,.13,.05,.26,.07,.39,.03,.19,.05,.37,.07,.55,.03,.27,.06,.55,.07,.83,.01,.21,.01,.33,.01,.33,0,.83-.1,1.64-.28,2.41Z" fill="#fff"/>
      <g>
        <path d="M103.22,62.3c.12-14.86-5.84-19.71-7.6-20.82-.31-.19-.49-.27-.49-.27-4.08-3.99-6.26-23.49-10.9-28.83-2.3-2.65-6.32-3.57-9.8-3.83-1.57-.11-3.02-.09-4.16-.03-1.33,.07-2.22,.18-2.34,.2h0s-.14-3.51-.53-5.48c0-.06-.02-.11-.04-.17,0-.04-.01-.07-.03-.11-.02-.05-.04-.11-.06-.17-.02-.07-.05-.14-.09-.21-.03-.07-.07-.14-.11-.21-.03-.07-.07-.13-.11-.2-.12-.2-.26-.38-.42-.56-.09-.09-.17-.18-.26-.26-.11-.11-.22-.21-.33-.31-.11-.09-.21-.18-.32-.26-.07-.06-.14-.11-.2-.15-.31-.23-.58-.39-.77-.5-.05-.03-.09-.05-.13-.07-.03-.02-.05-.03-.07-.04-.01,0-.02,0-.03,0h-25.6s-.04,0-.11,.05c-.04,.02-.08,.04-.13,.07-.23,.13-.59,.35-.98,.65-.11,.08-.21,.17-.32,.27-.11,.09-.22,.19-.33,.3-.13,.13-.25,.27-.37,.41-.12,.14-.23,.29-.33,.45-.21,.32-.36,.66-.43,1.03-.39,1.97-.53,5.48-.53,5.48,0,0-11.67-1.69-16.31,3.66-4.64,5.34-6.82,24.84-10.9,28.83,0,0-7.32,3.25-8.02,18.29-.05,.89-.07,1.82-.06,2.8,.01,1.56,.03,2.96,.07,4.23,.19,7.13,.77,10.02,2.14,11.83,.2,.25,.4,.48,.61,.71,.02,.02,.04,.05,.07,.07,1.07,1.04,2.51,1.82,4.42,3.27,0,0-.35,9.7,1.83,11.04,.4,.24,.75,.47,1.07,.66,1.44,.88,2.49,1.3,6.45,1.24,4.85-.07,6.96,.14,8.65-2.46,.13-.2,.24-.39,.35-.58,.2-.38,.37-.74,.49-1.11,.2-.59,.31-1.19,.36-1.87,.05-.66,.05-1.39,.03-2.25,0-.16-.01-.33-.01-.5-.01-.47-.03-.97-.04-1.52-.01-.15-.01-.3-.01-.46-.02-.31-.02-.64-.03-.98-.01-.27-.01-.55-.02-.84v-.23h50.35c-.07,6.05-.56,7.73,1.12,10.34,1.69,2.6,3.8,2.39,8.65,2.46s5.34-.57,7.52-1.9c2.18-1.34,1.83-11.04,1.83-11.04,5.77-4.36,7.17-2.67,7.32-20.11ZM23.9,19.62c2.64-1.33,14.15-6.55,16.97-7.69,4.76,.96,17.64,5.15,18.85,5.63,2.67-.24,13.95-2.58,16.12-3.28,.71,1.4,2.38,6.18,3.94,11.08,1.57,4.9,3.01,9.92,3.28,11.79-3,1.3-20.52,5.85-24.56,6.19-2.93-.89-18.43-4.34-22.5-4.88-3.29,1.34-16.44,3.11-17.98,3.01,.12-2.06,3.93-17.97,5.88-21.85Zm28.41,54.27c-5.8,0-10.5-5.01-10.5-11.19,0-.26,.02-.5,.03-.75h20.93c.02,.25,.04,.49,.04,.75,0,6.18-4.7,11.19-10.5,11.19Zm-29.74-21.7c5.8,0,10.5,4.7,10.5,10.5s-4.7,10.5-10.5,10.5-10.5-4.7-10.5-10.5,4.7-10.5,10.5-10.5Zm69.42,12.91s-.01,.01-.01,.02c-1.09,4.63-5.25,8.07-10.21,8.07-1.67,0-3.26-.4-4.66-1.1-.45-.22-.88-.48-1.29-.76-2.75-1.88-4.55-5.05-4.55-8.64,0-5.8,4.7-10.5,10.5-10.5,1.91,0,3.69,.51,5.23,1.4,.82,.47,1.56,1.04,2.22,1.71,1.23,1.24,2.15,2.78,2.64,4.51,.04,.12,.07,.24,.1,.36,.04,.14,.07,.28,.09,.42,.02,.13,.05,.26,.07,.39,.03,.19,.05,.37,.07,.55,.03,.27,.06,.55,.07,.83,.01,.21,.01,.33,.01,.33,0,.83-.1,1.64-.28,2.41Z" fill="#fff"/>
        <path d="M92.26,62.36c-.01-.28-.04-.56-.07-.83-.02-.18-.04-.36-.07-.55,.08,.45,.13,.91,.14,1.38Z" fill="#fff"/>
        <path d="M95.9,82.41s.35,9.7-1.83,11.04c-2.18,1.33-2.67,1.97-7.52,1.9s-6.96,.14-8.65-2.46c-1.68-2.61-1.19-4.29-1.12-10.34H26.43v.23c.01,.29,.01,.57,.02,.84,.01,.34,.01,.67,.03,.98,0,.16,0,.31,.01,.46,.01,.55,.03,1.05,.04,1.52,0,.17,.01,.34,.01,.5,.02,.86,.02,1.59-.03,2.25-.05,.68-.16,1.28-.36,1.87-.12,.37-.29,.73-.49,1.11-.11,.19-.22,.38-.35,.58-1.69,2.6-3.8,2.39-8.65,2.46-3.96,.06-5.01-.36-6.45-1.24-.32-.19-.67-.42-1.07-.66-2.18-1.34-1.83-11.04-1.83-11.04-1.13-.56-2.84-1.57-4.42-3.27-.03-.02-.05-.05-.07-.07-.21-.23-.41-.46-.61-.71-1.37-1.81-1.95-4.7-2.14-11.83-.04-1.27-.06-2.67-.07-4.23-.01-.98,.01-1.91,.06-2.8,.13-.21,.25-.33,.35-.33,.89,0-.52,8.52,5,13.64,3.06,2.85,6.86,3.36,10.4,3.73,18.49,1.93,33.99,.5,37.67,.16,15.59-1.43,18.59-2.36,21.38-3.56,.77-.33,1.52-.68,2.25-1.05,1.4,.7,2.99,1.1,4.66,1.1,4.96,0,9.12-3.44,10.21-8.07,0-.01,.01-.01,.01-.02,.18-.77,.28-1.58,.28-2.41,0,0,0-.12-.01-.33-.01-.28-.04-.56-.07-.83-.02-.18-.04-.36-.07-.55-.02-.13-.05-.26-.07-.39-.02-.14-.05-.28-.09-.42-.03-.12-.06-.24-.1-.36-.49-1.73,.37-8.16,1.29-10.67,1.04-2.86-1.2-5.4-3.57-9.75-6.22-11.45-3.08-16.7-9.76-25.36-2.07-2.68-4.16-4.5-5.39-5.48,3.48,.26,7.5,1.18,9.8,3.83,4.64,5.34,6.82,24.84,10.9,28.83,0,0,.18,.08,.49,.27,1.76,1.11,7.72,5.96,7.6,20.82-.15,17.44-1.55,15.75-7.32,20.11Z" fill="#fff"/>
        <path d="M67.93,8.72H35.3s.14-3.51,.53-5.48c.07-.37,.22-.71,.42-1.03,.1-.16,.21-.31,.33-.45,.12-.14,.24-.28,.37-.41,.11-.11,.22-.21,.33-.3,.11-.1,.21-.19,.32-.27,.39-.3,.75-.52,.98-.65,.05-.03,.09-.05,.13-.07,.07-.04,.11-.06,.11-.06h25.6s.02,.01,.03,.02c.02,.01,.04,.02,.07,.04,.04,.02,.08,.04,.13,.07,.19,.11,.46,.27,.77,.5,.06,.04,.13,.09,.2,.15,.1,.07,.21,.16,.32,.26,.11,.1,.22,.2,.33,.31,.09,.08,.17,.17,.26,.26,.16,.18,.3,.36,.42,.56,.04,.07,.08,.13,.11,.2,.04,.07,.08,.14,.11,.21,.04,.07,.07,.14,.09,.21,.02,.06,.04,.12,.06,.17,.02,.04,.03,.07,.03,.11,.02,.05,.04,.11,.05,.17,.39,1.97,.53,5.48,.53,5.48Z" fill="#fff"/>
      </g>
      <path d="M131.82,54.99v-6.9h-7.98V31.77h-8.1v31.47c0,4.47,1.56,8.26,4.68,11.35,3.12,3.1,6.92,4.64,11.4,4.64v-8.1c-2.2,0-4.08-.77-5.64-2.31-1.56-1.53-2.34-3.4-2.34-5.61v-8.22h7.98Z" fill="#fff"/>
      <path d="M167.1,58.71c-1.16-3.2-3.11-5.76-5.85-7.71-2.74-1.94-5.81-2.91-9.21-2.91-1.8,0-3.64,.34-5.52,1.02-3.2,1.16-5.76,3.11-7.68,5.85-1.92,2.75-2.88,5.82-2.88,9.21,0,4.44,1.55,8.22,4.65,11.34,3.1,3.12,6.89,4.68,11.37,4.68,4.97,0,9.05-1.88,12.25-5.64l1.7,4.68h8.61l-7.44-20.52Zm-9.48,11.07c-1.56,1.54-3.44,2.31-5.64,2.31-1.6,0-3.1-.48-4.5-1.44-2.28-1.57-3.42-3.73-3.42-6.51,0-1.64,.48-3.17,1.44-4.57,1.52-2.25,3.68-3.38,6.48-3.38,1.72,0,3.24,.47,4.56,1.39,2.28,1.57,3.42,3.75,3.42,6.56,0,2.21-.78,4.09-2.34,5.64Z" fill="#fff"/>
      <path d="M197.64,63.09l10.68-15h-10.08l-5.4,8.4-5.28-8.4h-10.2l10.32,15-11.52,16.14h10.68l5.7-9.24,5.52,9.24h10.56l-10.98-16.14Z" fill="#fff"/>
      <path d="M219.66,41.19c0,1.36-.46,2.51-1.38,3.45s-2.06,1.41-3.42,1.41-2.51-.47-3.45-1.41c-.94-.94-1.41-2.09-1.41-3.45s.47-2.5,1.41-3.42c.94-.92,2.09-1.38,3.45-1.38s2.45,.47,3.39,1.41c.94,.94,1.41,2.07,1.41,3.39Z" fill="#fff"/>
      <rect x="210.84" y="48.09" width="8.1" height="31.14" fill="#fff"/>
      <path d="M251.13,52.74c-3.1-3.1-6.89-4.65-11.37-4.65-2.88,0-5.54,.68-7.98,2.04V31.77h-8.1v32.3c0,4.52,1.55,8.32,4.65,11.42,3.1,3.1,6.91,4.64,11.43,4.64s8.27-1.55,11.37-4.67c3.1-3.11,4.65-6.9,4.65-11.38s-1.55-8.25-4.65-11.34Zm-5.76,16.96c-1.54,1.56-3.41,2.33-5.61,2.33s-4.08-.77-5.64-2.33c-1.56-1.55-2.34-3.42-2.34-5.62s.78-4.05,2.34-5.58c1.56-1.54,3.44-2.31,5.64-2.31s4.02,.78,5.58,2.34c1.56,1.55,2.34,3.4,2.34,5.55s-.77,4.07-2.31,5.62Z" fill="#fff"/>
      <path d="M358.26,31.77v18.36c-2.44-1.36-5.08-2.04-7.92-2.04-4.48,0-8.28,1.55-11.4,4.65-3.12,3.09-4.68,6.87-4.68,11.34s1.55,8.32,4.65,11.41c3.1,3.1,6.91,4.64,11.43,4.64s8.27-1.55,11.37-4.67c3.1-3.12,4.65-6.91,4.65-11.39V31.77h-8.1Zm-2.31,37.93c-1.54,1.56-3.41,2.33-5.61,2.33s-4.08-.77-5.64-2.33c-1.56-1.55-2.34-3.42-2.34-5.62s.78-4.05,2.34-5.58c1.56-1.54,3.44-2.31,5.64-2.31s4.02,.78,5.58,2.34c1.56,1.55,2.34,3.4,2.34,5.55s-.77,4.07-2.31,5.62Z" fill="#fff"/>
      <path d="M395.16,48.09v16.04c0,2.2-.78,4.07-2.35,5.63-1.57,1.56-3.45,2.33-5.66,2.33s-4.09-.78-5.63-2.33c-1.55-1.56-2.32-3.43-2.32-5.63v-16.04h-8.1v16.05c0,4.47,1.56,8.26,4.68,11.38s6.92,4.67,11.4,4.67c2.84,0,5.5-.7,7.98-2.1v1.44l8.1-1.45v-29.99h-8.1Z" fill="#fff"/>
      <path d="M395.16,79.53c0,12.55-13.12,15.64-24.06,16.03v9.69c1.79-.12,3.67-.33,5.62-.63,7.51-1.19,13.48-2.14,18.59-6.82,7.24-6.64,7.89-16.34,7.95-19.72-2.7,.48-5.4,.97-8.1,1.45Z" fill="#fff"/>
      <path d="M284.58,64.11c0,2.2-.78,4.08-2.35,5.64-1.57,1.56-3.45,2.34-5.66,2.34s-4.08-.78-5.63-2.34c-1.55-1.56-2.32-3.44-2.32-5.64v-4.71h-8.1v4.71c0,4.48,1.56,8.28,4.68,11.4,3.12,3.12,6.92,4.68,11.4,4.68s8.33-1.55,11.43-4.65,4.65-6.91,4.65-11.43v-4.71h-8.1v4.71Z" fill="#fff"/>
      <path d="M321.42,31.77v18.36c-2.44-1.36-5.08-2.04-7.92-2.04-4.48,0-8.28,1.55-11.4,4.65-3.12,3.09-4.68,6.87-4.68,11.34s1.55,8.32,4.65,11.41c3.1,3.1,6.91,4.64,11.43,4.64s8.27-1.55,11.37-4.67c3.1-3.12,4.65-6.91,4.65-11.39V31.77h-8.1Zm.32,37.42c1.52,.65,1.7,1.44,1.7,2.27,0,1.15-.83,1.94-1.98,1.94-.51,0-1.08-.07-1.98-.5l-14.65-6.73c-.76-.36-1.33-1.16-1.33-2.06s.57-1.69,1.33-2.05l14.65-6.73c.9-.43,1.47-.5,1.98-.5,1.15,0,1.98,.79,1.98,1.94,0,.83-.18,1.62-1.7,2.27l-11.59,5.07,11.59,5.08Z" fill="#fff"/>
    </g>
  </g>
</svg>