<?xml version="1.0" encoding="UTF-8"?>
<svg xmlns="http://www.w3.org/2000/svg" viewBox="0 0 287.52 73.48">
  <g id="Layer_1" data-name="Layer 1"/>
  <g id="Layer_2" data-name="Layer 2">
    <g id="Layer_2-2" data-name="Layer 2">
      <path d="M16.08,47.46c-4.48,0-8.28-1.55-11.4-4.64-3.12-3.1-4.68-6.88-4.68-11.36V0H8.1V16.32h7.98v6.9h-7.98v8.22c0,2.2,.78,4.07,2.34,5.61,1.56,1.54,3.44,2.31,5.64,2.31v8.1Z" fill="#ff810a"/>
      <path d="M58.8,47.46h-8.61l-1.7-4.68c-3.2,3.76-7.28,5.64-12.24,5.64-4.48,0-8.27-1.56-11.37-4.68s-4.65-6.9-4.65-11.34c0-3.4,.96-6.47,2.88-9.21s4.48-4.69,7.68-5.85c1.88-.68,3.72-1.02,5.52-1.02,3.4,0,6.47,.97,9.21,2.91,2.74,1.94,4.69,4.51,5.85,7.71l7.44,20.52Zm-14.58-15.09c0-2.81-1.14-5-3.42-6.56-1.32-.92-2.84-1.39-4.56-1.39-2.8,0-4.96,1.12-6.48,3.37-.96,1.41-1.44,2.93-1.44,4.58,0,2.77,1.14,4.94,3.42,6.5,1.4,.96,2.9,1.45,4.5,1.45,2.2,0,4.08-.77,5.64-2.32,1.56-1.55,2.34-3.42,2.34-5.63Z" fill="#ff810a"/>
      <path d="M92.88,47.46h-10.56l-5.52-9.24-5.7,9.24h-10.68l11.52-16.14-10.32-15h10.2l5.28,8.4,5.4-8.4h10.08l-10.68,15,10.98,16.14Z" fill="#ff810a"/>
      <path d="M103.92,9.42c0,1.36-.46,2.51-1.38,3.45s-2.06,1.41-3.42,1.41-2.51-.47-3.45-1.41c-.94-.94-1.41-2.09-1.41-3.45s.47-2.5,1.41-3.42c.94-.92,2.09-1.38,3.45-1.38s2.45,.47,3.39,1.41c.94,.94,1.41,2.07,1.41,3.39Z" fill="#ff810a"/>
      <rect x="95.1" y="16.32" width="8.1" height="31.14" fill="#ff810a"/>
      <path d="M140.04,32.31c0,4.47-1.55,8.27-4.65,11.38s-6.89,4.67-11.37,4.67-8.33-1.55-11.43-4.64c-3.1-3.1-4.65-6.9-4.65-11.42V0h8.1V18.36c2.44-1.36,5.1-2.04,7.98-2.04,4.48,0,8.27,1.55,11.37,4.64,3.1,3.09,4.65,6.88,4.65,11.35Zm-8.1,0c0-2.15-.78-4-2.34-5.56-1.56-1.55-3.42-2.33-5.58-2.33s-4.08,.77-5.64,2.3c-1.56,1.53-2.34,3.4-2.34,5.59s.78,4.07,2.34,5.62c1.56,1.55,3.44,2.33,5.64,2.33s4.07-.78,5.61-2.33c1.54-1.55,2.31-3.43,2.31-5.62Z" fill="#ff810a"/>
      <path d="M242.52,0V18.36c-2.44-1.36-5.08-2.04-7.92-2.04-4.48,0-8.28,1.55-11.4,4.64-3.12,3.09-4.68,6.88-4.68,11.35s1.55,8.32,4.65,11.41c3.1,3.09,6.91,4.64,11.43,4.64s8.27-1.56,11.37-4.67c3.1-3.12,4.65-6.91,4.65-11.39V0h-8.1Zm-2.31,37.93c-1.54,1.55-3.41,2.33-5.61,2.33s-4.08-.78-5.64-2.33c-1.56-1.55-2.34-3.43-2.34-5.62s.78-4.05,2.34-5.59c1.56-1.53,3.44-2.3,5.64-2.3s4.02,.78,5.58,2.33c1.56,1.55,2.34,3.41,2.34,5.56s-.77,4.07-2.31,5.62Z" fill="#ff810a"/>
      <path d="M279.42,16.32v16.04c0,2.2-.78,4.07-2.35,5.63-1.57,1.56-3.45,2.33-5.66,2.33s-4.09-.78-5.63-2.33c-1.55-1.56-2.32-3.43-2.32-5.63V16.32h-8.1v16.05c0,4.47,1.56,8.26,4.68,11.38s6.92,4.67,11.4,4.67c2.84,0,5.5-.7,7.98-2.1v1.44l8.1-1.45V16.32h-8.1Z" fill="#ff810a"/>
      <path d="M279.42,47.76c0,12.55-13.12,15.64-24.06,16.03v9.69c1.79-.12,3.67-.33,5.62-.63,7.51-1.19,13.48-2.14,18.59-6.82,7.24-6.64,7.89-16.34,7.95-19.72-2.7,.48-5.4,.97-8.1,1.45Z" fill="#ff810a"/>
      <path d="M168.84,32.34c0,2.2-.78,4.08-2.35,5.64-1.57,1.56-3.45,2.34-5.66,2.34s-4.08-.78-5.63-2.34c-1.55-1.56-2.32-3.44-2.32-5.64v-4.71h-8.1v4.71c0,4.48,1.56,8.28,4.68,11.4,3.12,3.12,6.92,4.68,11.4,4.68s8.33-1.55,11.43-4.65,4.65-6.91,4.65-11.43v-4.71h-8.1v4.71Z" fill="#ff810a"/>
      <path d="M205.68,0V18.36c-2.44-1.36-5.08-2.04-7.92-2.04-4.48,0-8.28,1.55-11.4,4.64-3.12,3.09-4.68,6.88-4.68,11.35s1.55,8.32,4.65,11.41c3.1,3.09,6.91,4.64,11.43,4.64s8.27-1.56,11.37-4.67c3.1-3.12,4.65-6.91,4.65-11.39V0h-8.1Zm.33,37.42c1.51,.65,1.69,1.44,1.69,2.27,0,1.15-.83,1.94-1.98,1.94-.5,0-1.08-.07-1.98-.5l-14.65-6.73c-.76-.36-1.33-1.15-1.33-2.05s.58-1.69,1.33-2.05l14.65-6.73c.9-.43,1.48-.5,1.98-.5,1.15,0,1.98,.79,1.98,1.94,0,.83-.18,1.62-1.69,2.27l-11.59,5.08,11.59,5.08Z" fill="#ff810a"/>
    </g>
  </g>
</svg>